<svg viewBox="0 0 750.45 557.31" xmlns="http://www.w3.org/2000/svg"><rect fill="#1dcdff" height="164.95" rx="25.33" width="511.52" x="4.48" y="61.08"/><path d="m516 164.32v51.83c0 5.46-11 9.88-24.49 9.88h-462.51c-13.53 0-24.49-4.42-24.49-9.88v-30c31.18 8.26 66.68 13.83 103.09 17.29 44 4.18 89.35 5.4 134.51 5.58 54 .22 108.9-1.09 159.73-8.42 46.58-6.69 89.77-19.05 114.16-36.28z" fill="#1ab5e1"/><path d="m189.42 61.5c-48.19 3.26-115.12.11-156.71 12.1-19.71 5.67-24.59 16.69-27.76 25.8l.05-25.5c0-3.27.28-6.83 5.51-9.33 6.47-3.08 17.84-3.32 27.85-3.31 49.15.01 102.88-2.15 151.06.24z" fill="#4ed9ff"/><rect fill="none" height="164.95" rx="25.33" stroke="#314e5d" stroke-miterlimit="10" stroke-width="8" width="511.52" x="4" y="61.28"/><rect fill="#1dcdff" height="164.95" rx="25.33" width="577.45" x="169.55" y="317.08"/><path d="m747 420.32v51.83c0 5.46-12.38 9.88-27.65 9.88h-522.15c-15.27 0-27.65-4.42-27.65-9.88v-30c35.2 8.26 75.28 13.83 116.38 17.29 49.62 4.18 100.86 5.4 151.85 5.58 60.94.22 122.94-1.09 180.32-8.42 52.61-6.69 101.37-19.05 128.9-36.28z" fill="#1ab5e1"/><path d="m378.32 317.5c-54.4 3.26-130 .11-176.91 12.1-22.27 5.68-27.76 16.7-31.35 25.81l.07-25.51c0-3.27.31-6.83 6.22-9.33 7.31-3.08 20.14-3.32 31.44-3.31 55.48.01 116.15-2.15 170.53.24z" fill="#4ed9ff"/><rect fill="none" height="164.95" rx="25.33" stroke="#314e5d" stroke-miterlimit="10" stroke-width="8" width="577.45" x="169" y="317.28"/><rect fill="#fff" height="545.37" rx="15.86" width="577.8" x="88.25" y="4.91"/><path d="m668.55 26.89v80.33h-577.79v-80.33c0-13.36 7.1-24.21 15.86-24.21h546.07c8.76 0 15.86 10.85 15.86 24.21z" fill="#dceaef"/><rect fill="none" height="549.31" rx="15.86" stroke="#314e5d" stroke-miterlimit="10" stroke-width="8" width="577.8" x="87.56" y="4"/><circle cx="142" cy="60.22" fill="#eea248" r="12"/><circle cx="181" cy="60.22" fill="#eea248" r="12"/><circle cx="220" cy="60.22" fill="#eea248" r="12"/><g fill="#426372"><path d="m194.83 224.88c0-11.44 3.92-17.86 11.44-17.86s11.44 6.42 11.44 17.86-3.92 17.91-11.44 17.91-11.44-6.42-11.44-17.91zm18.12 0c0-10.09-2.45-14.2-6.67-14.2s-6.67 4.11-6.67 14.2 2.51 14.25 6.67 14.25 6.67-4.13 6.67-14.25zm-6.68-3.26a3.29 3.29 0 1 1 -3.26 3.26 3.24 3.24 0 0 1 3.26-3.26z"/><path d="m236.2 212.69-8.28 5-2.21-3.21 11-6.88h4.06v30.86h7.07v3.72h-20.11v-3.72h8.48v-25.77z"/><path d="m305.11 212.29 2.21 3.46-17.56 10.74 17.56 10.78-2.41 3.37-19.13-11.94v-4.46z"/><path d="m332.89 242.19v-16.19h-12.55v16.2h-4.76v-34.57h4.76v14.45h12.54v-14.45h4.76v34.57z"/><path d="m359 211.64v30.56h-4.76v-30.56h-10.68v-4h26.29l-.5 4z"/><path d="m395.87 242.19-1-17.71c-.25-4.87-.25-10.48-.2-11.59h-.16l-5.51 23.11h-4.57l-5.72-23.13h-.2c0 1.15.1 7.13-.1 11.59l-.85 17.71h-4.41l2-34.57h6.32l5.32 23.08h.2l5.07-23.08h6.37l2 34.57z"/><path d="m408.39 242.19v-34.56h4.76v30.37h15.7l-.55 4.16z"/><path d="m457.75 224.23v4.46l-19.12 11.94-2.41-3.37 17.56-10.78-17.56-10.74 2.21-3.46z"/><path d="m194.83 285.06c0-11.44 3.92-17.86 11.44-17.86s11.44 6.42 11.44 17.86-3.92 17.94-11.44 17.94-11.44-6.46-11.44-17.94zm18.12 0c0-10.09-2.45-14.2-6.67-14.2s-6.67 4.11-6.67 14.2 2.51 14.25 6.67 14.25 6.67-4.12 6.67-14.25zm-6.68-3.26a3.29 3.29 0 1 1 -3.26 3.26 3.24 3.24 0 0 1 3.26-3.27z"/><path d="m230.89 298.5h15.7l-.55 3.86h-20.57v-3.66c11.94-11.84 15.61-16.61 15.61-21.83a5.49 5.49 0 0 0 -5.87-5.82c-2.86 0-4.82 1.06-6.93 3.71l-3.21-2.26c2.71-3.36 6.12-5.32 10.39-5.32 6.32 0 10.39 4 10.39 9.54-.01 6.03-4.78 12.05-14.96 21.78z"/><path d="m305.11 272.46 2.21 3.46-17.56 10.74 17.56 10.78-2.41 3.37-19.12-11.94v-4.47z"/><path d="m325.71 302.37h-9.53v-34.57h8.82c6.17 0 12.35 2 12.35 8.73a7.35 7.35 0 0 1 -6 7.38v.2c3.46.65 7.53 2.66 7.53 8.38-.08 7.57-6.7 9.88-13.17 9.88zm.1-30.81h-4.87v10.83h5.27c4 0 6.23-1.66 6.23-5.57s-2.51-5.26-6.63-5.26zm.75 14.65h-5.62v12.3h5.42c3.37 0 7.43-1 7.43-5.92s-3.26-6.38-7.23-6.38z"/><path d="m356.7 303c-8.48 0-12.84-7.07-12.84-17.81 0-10.53 4.36-18 12.84-18s12.84 7.18 12.84 17.91c.01 10.54-4.37 17.9-12.84 17.9zm0-31.86c-5.62 0-7.88 4.92-7.88 14s2.41 13.9 7.88 13.9c5.62 0 7.87-4.82 7.87-14s-2.25-13.94-7.87-13.94z"/><path d="m383.82 302.37h-8.08v-34.57h7.53c8.18 0 16.3 2.76 16.3 17.11s-8.42 17.46-15.75 17.46zm.51-30.75h-3.81v27h3.86c4.92 0 10.13-2.51 10.13-13.69 0-11.76-5.51-13.32-10.18-13.32z"/><path d="m419.28 289.07v13.3h-4.82v-13.25l-11.64-21.33h5.27l8.84 16.9h.16l8.88-16.9h5z"/><path d="m457.75 284.4v4.46l-19.12 11.94-2.41-3.37 17.56-10.78-17.56-10.74 2.21-3.46z"/><path d="m194.83 345.23c0-11.44 3.92-17.86 11.44-17.86s11.44 6.42 11.44 17.86-3.92 17.91-11.44 17.91-11.44-6.42-11.44-17.91zm18.12 0c0-10.09-2.45-14.2-6.67-14.2s-6.67 4.11-6.67 14.2 2.51 14.25 6.67 14.25 6.67-4.12 6.67-14.25zm-6.68-3.23a3.29 3.29 0 1 1 -3.26 3.26 3.24 3.24 0 0 1 3.26-3.26z"/><path d="m235 363.14a13.83 13.83 0 0 1 -10.78-4.66l3-2.51a9.93 9.93 0 0 0 7.62 3.41c4.66 0 7.48-2.61 7.48-6.83 0-4.82-3-6.42-7-6.42h-2.66l.55-3.56h1.79c3.31 0 6.42-1.85 6.42-5.87 0-3.67-2.81-5.68-6.37-5.68-3 0-5 1.06-7.27 3.16l-2.51-2.76a14.17 14.17 0 0 1 10-4.07c6.62 0 10.74 4 10.74 8.68a8.14 8.14 0 0 1 -6.57 8v.2a8.07 8.07 0 0 1 7.68 8.38c.02 5.96-4.85 10.53-12.12 10.53z"/><path d="m305.11 332.63 2.21 3.46-17.56 10.74 17.56 10.78-2.42 3.39-19.12-12v-4.46z"/><path d="m332.89 362.54v-16.2h-12.55v16.2h-4.76v-34.54h4.76v14.45h12.54v-14.45h4.76v34.57h-4.76z"/><path d="m352 331.77v11.29h12.74v3.81h-12.74v11.89h15.61v3.76h-20.34v-34.52h20l-.55 3.81z"/><path d="m393.31 353.86h-13.31l-2.66 8.68h-4.76l11.19-34.54h6l11.23 34.54h-5zm-12.14-3.86h11l-5.37-17.71h-.2z"/><path d="m413.91 362.54h-8.08v-34.54h7.53c8.18 0 16.3 2.76 16.3 17.11s-8.43 17.43-15.75 17.43zm.5-30.76h-3.81v27h3.86c4.92 0 10.13-2.51 10.13-13.69.01-11.75-5.46-13.32-10.18-13.32z"/><path d="m442.29 331.77v11.29h12.71v3.81h-12.71v11.89h15.61v3.76h-20.37v-34.52h20l-.55 3.81z"/><path d="m480.81 347.29 10.13 15.25h-5.67l-9.27-14.65h-4.41v14.65h-4.76v-34.54h9.08c8.63 0 13.14 3.3 13.14 9.78.03 5.14-3.58 8.3-8.24 9.51zm-4.42-15.61h-4.76v12.54h4.82c4.82 0 7.57-1.8 7.57-6.47-.02-4.32-2.47-6.07-7.64-6.07z"/><path d="m517.92 344.58v4.42l-19.12 12-2.41-3.37 17.56-10.78-17.56-10.74 2.21-3.46z"/><path d="m194.83 405.4c0-11.44 3.92-17.86 11.44-17.86s11.43 6.46 11.43 17.86-3.92 17.91-11.44 17.91-11.43-6.42-11.43-17.91zm18.12 0c0-10.09-2.45-14.2-6.67-14.2s-6.67 4.11-6.67 14.2 2.51 14.25 6.67 14.25 6.67-4.12 6.67-14.25zm-6.68-3.26a3.29 3.29 0 1 1 -3.27 3.26 3.24 3.24 0 0 1 3.27-3.26z"/><path d="m243.38 414.43v8.28h-4.46v-8.28h-14.15v-3.26l10.13-23.64 3.86 1.61-9.14 21.63h9.28l.46-9h4v9h4.36v3.67z"/><path d="m305.11 392.8 2.21 3.46-17.56 10.74 17.56 10.78-2.41 3.37-19.12-11.94v-4.46z"/><path d="m317.79 427.93-3.72-1.66 21.42-44.2 3.67 1.76z"/><path d="m363 422.71v-16.2h-12.58v16.2h-4.76v-34.57h4.76v14.45h12.58v-14.45h4.76v34.57z"/><path d="m382.12 392v11.29h12.74v3.81h-12.74v11.89h15.61v3.76h-20.37v-34.61h20l-.55 3.81z"/><path d="m423.39 414h-13.3l-2.66 8.68h-4.76l11.19-34.57h6l11.19 34.57h-5zm-12.14-3.86h11l-5.37-17.71h-.21z"/><path d="m444 422.71h-8.08v-34.57h7.53c8.18 0 16.3 2.76 16.3 17.11s-8.42 17.46-15.75 17.46zm.5-30.71h-3.81v27h3.86c4.92 0 10.13-2.51 10.13-13.69 0-11.8-5.47-13.31-10.18-13.31z"/><path d="m472.37 392v11.29h12.74v3.81h-12.74v11.89h15.63v3.76h-20.39v-34.61h20l-.61 3.86z"/><path d="m510.89 407.45 10.11 15.26h-5.67l-9.23-14.65h-4.42v14.65h-4.76v-34.57h9.08c8.63 0 13.14 3.3 13.14 9.78.03 5.17-3.58 8.33-8.25 9.53zm-4.41-15.6h-4.76v12.55h4.82c4.82 0 7.57-1.8 7.57-6.47-.01-4.32-2.47-6.08-7.64-6.08z"/><path d="m548 404.75v4.46l-19.12 11.94-2.41-3.37 17.53-10.78-17.56-10.74 2.21-3.46z"/></g></svg>