<svg viewBox="0 0 519.19 199.93" xmlns="http://www.w3.org/2000/svg"><path d="m80.67 40.05-13.78-6.61 2.35-12.03 4.91.96-1.61 8.23 10.3 4.94z" fill="#f9b117"/><path d="m80.67 40.05-13.78-6.61 2.35-12.03 4.91.96-1.61 8.23 10.3 4.94z" fill="none" stroke="#141414" stroke-miterlimit="10" stroke-width="2"/><circle cx="71.7" cy="18.19" fill="#0e394f" r="6.23"/><circle cx="71.7" cy="18.19" fill="none" r="6.23" stroke="#141414" stroke-miterlimit="10" stroke-width="2"/><path d="m64.18 52.6a22 22 0 0 1 36.43-11.3l11.51 10.7 39.52 36.54-51.41 16-51.4 16 11.89-52.64z" fill="#faca3f"/><path d="m113.69 53.29-50.9 15.8.78-3.45a49.73 49.73 0 0 0 15.23-5.44 47.08 47.08 0 0 0 19.77-20.15 22.44 22.44 0 0 1 4 3z" fill="#f99f00"/><path d="m360.46 179.64h21.06a24 24 0 0 0 17-7 24 24 0 0 1 33.94 0l4.5 4.5a24 24 0 0 0 17 7h32.56" fill="none" stroke="#141414" stroke-miterlimit="10" stroke-width="2"/><path d="m510.68 174.86c-4.86-9.31-13.56-16.29-24.79-16.29a29.13 29.13 0 0 0 -27.89 20.86 6.48 6.48 0 0 0 6.25 8.26h35.71l11.66-1" fill="#2c6e9b"/><path d="m467.11 179.43a6.47 6.47 0 0 0 6.24 8.26h-9.14a6.48 6.48 0 0 1 -6.25-8.26 29.13 29.13 0 0 1 27.93-20.86 28.79 28.79 0 0 1 4.58.36 29.15 29.15 0 0 0 -23.36 20.5z" fill="#0e3964" opacity=".3"/><path d="m511.7 183.56a24.65 24.65 0 0 0 -16.37-23.42 29.13 29.13 0 0 0 -37.33 19.2 6.5 6.5 0 0 0 6.22 8.35h43.37a4.12 4.12 0 0 0 4.12-4.13z" fill="none" stroke="#141414" stroke-miterlimit="10" stroke-width="2"/><path d="m75.43 139.53h17.57a0 0 0 0 1 0 0v33.36a8.8 8.8 0 0 1 -8.8 8.8 8.8 8.8 0 0 1 -8.8-8.8v-33.36a0 0 0 0 1 .03 0z" fill="#fbd766" transform="matrix(.9551234 -.29620819 .29620819 .9551234 -43.81 32.17)"/><path d="m136.56 119.71h17.6a0 0 0 0 1 0 0v33.36a8.8 8.8 0 0 1 -8.8 8.8 8.8 8.8 0 0 1 -8.8-8.8v-33.36a0 0 0 0 1 0 0z" fill="#fbd766" transform="matrix(.9551234 -.29620819 .29620819 .9551234 -35.19 49.39)"/><path d="m75.43 139.53h17.57a0 0 0 0 1 0 0v33.36a8.8 8.8 0 0 1 -8.8 8.8 8.8 8.8 0 0 1 -8.8-8.8v-33.36a0 0 0 0 1 .03 0z" fill="none" stroke="#141414" stroke-miterlimit="10" stroke-width="2" transform="matrix(.9551234 -.29620819 .29620819 .9551234 -43.81 32.17)"/><path d="m136.56 119.71h17.6a0 0 0 0 1 0 0v33.36a8.8 8.8 0 0 1 -8.8 8.8 8.8 8.8 0 0 1 -8.8-8.8v-33.36a0 0 0 0 1 0 0z" fill="none" stroke="#141414" stroke-miterlimit="10" stroke-width="2" transform="matrix(.9551234 -.29620819 .29620819 .9551234 -35.19 49.39)"/><path d="m75.85 150.87 3.31 10.68" style="fill:none;stroke:#fff;stroke-linecap:round;stroke-linejoin:round;stroke-width:2.8;opacity:.7"/><path d="m82 118.36h63.44a0 0 0 0 1 0 0v41a18 18 0 0 1 -18 18h-27.5a18 18 0 0 1 -18-18v-41a0 0 0 0 1 0 0z" fill="#faca3f" transform="matrix(.9551234 -.29620819 .29620819 .9551234 -38.7 40.32)"/><path d="m79.73 136.71h63.44v7.78h-63.44z" fill="#f7b000" transform="matrix(.9551234 -.29620819 .29620819 .9551234 -36.65 39.33)"/><path d="m82 118.36h63.44a0 0 0 0 1 0 0v41a18 18 0 0 1 -18 18h-27.5a18 18 0 0 1 -18-18v-41a0 0 0 0 1 0 0z" fill="none" stroke="#141414" stroke-miterlimit="10" stroke-width="2" transform="matrix(.9551234 -.29620819 .29620819 .9551234 -38.7 40.32)"/><path d="m64.18 52.6a22 22 0 0 1 36.43-11.3l11.51 10.7 38.52 36.54-50.41 16-50.4 16 10.89-52.64z" fill="none" stroke="#141414" stroke-miterlimit="10" stroke-width="2"/><rect fill="#f9b117" height="81.04" rx="13.06" transform="matrix(.96 -.3 .3 .96 -24.68 33.53)" width="107.22" x="44.68" y="57.67"/><path d="m156.39 104.53 1.24 4a13.06 13.06 0 0 1 -8.6 16.34l-77.46 24a13.07 13.07 0 0 1 -16.35-8.6l-1.24-4a13.06 13.06 0 0 0 16.34 8.6l77.47-24a13 13 0 0 0 8.6-16.34z" fill="#e59303" opacity=".5"/><rect fill="#0e394f" height="67.12" rx="7.84" transform="matrix(.96 -.3 .3 .96 -24.68 33.53)" width="92.9" x="51.84" y="64.62"/><path d="m148.09 102 2.19 7a7.84 7.84 0 0 1 -5.17 9.81l-73.75 22.87a7.85 7.85 0 0 1 -9.82-5.17l-2.18-7a7.84 7.84 0 0 0 9.81 5.16l73.76-22.88a7.83 7.83 0 0 0 5.16-9.79z" fill="#062538"/><rect fill="#4cf58c" height="18.83" rx="3.07" transform="matrix(.9551234 -.29620819 .29620819 .9551234 -25.89 30.3)" width="6.14" x="83.96" y="91.14"/><rect fill="#4cf58c" height="18.83" rx="3.07" transform="matrix(.9551234 -.29620819 .29620819 .9551234 -22.89 36.48)" width="6.14" x="105.85" y="84.35"/><rect fill="#185472" height="15.47" rx="2.58" transform="matrix(.29637489 .95507169 -.95507169 .29637489 122.05 2.42)" width="5.16" x="56.81" y="76.3"/><circle cx="71.03" cy="80.55" fill="#185472" r="2.46"/><rect fill="#ffcb6e" height="3.61" rx="1.81" transform="matrix(.9551234 -.29620819 .29620819 .9551234 -17.74 22.37)" width="20.12" x="54.89" y="67.92"/><circle cx="77.3" cy="65.8" fill="#ffcb6e" r="1.88"/><rect fill="#f7b40d" height="2.28" rx="1.14" transform="matrix(.9551234 -.29620819 .29620819 .9551234 -10.6 26.59)" width="11.42" x="76.73" y="47.12"/><rect fill="#f7b40d" height="2.28" rx="1.14" transform="matrix(.9551234 -.29620819 .29620819 .9551234 -9.61 26.11)" width="11.42" x="75.64" y="43.63"/><rect fill="#f7b40d" height="3.49" rx="1.75" transform="matrix(.9551234 -.29620819 .29620819 .9551234 -41.68 41.66)" width="17.47" x="107.85" y="156.6"/><rect fill="#f7b40d" height="3.49" rx="1.75" transform="matrix(.96 -.3 .3 .96 -40.17 40.92)" width="17.47" x="106.2" y="151.26"/><rect fill="none" height="81.04" rx="13.06" stroke="#141414" stroke-miterlimit="10" stroke-width="2" transform="matrix(.96 -.3 .3 .96 -24.68 33.53)" width="107.22" x="44.68" y="57.67"/><path d="m409 189.43c0 5.8-118.72 10.5-222 10.5s-187-4.7-187-10.5 83.72-10.5 187-10.5 222 4.7 222 10.5z" fill="#0e394f" opacity=".2"/><path d="m519.19 189.43c0 2.35-19 4.26-35.53 4.26s-29.93-1.91-29.93-4.26 13.4-4.26 29.93-4.26 35.53 1.91 35.53 4.26z" fill="#0e394f" opacity=".2"/><path d="m372.76 1h-205.41a6.17 6.17 0 0 0 -6.07 5.11l-23.84 156.62a6.16 6.16 0 0 0 6.07 7.2h213.26a6.15 6.15 0 0 0 6-5l24.67-146.16a15 15 0 0 0 -14.68-17.77z" fill="#0e3964"/><path d="m372.76 1h-205.41a6.17 6.17 0 0 0 -6.07 5.11l-23.84 156.62a6.16 6.16 0 0 0 6.07 7.2h213.26a6.15 6.15 0 0 0 6-5l24.67-146.16a15 15 0 0 0 -14.68-17.77z" fill="none" stroke="#141414" stroke-miterlimit="10" stroke-width="2"/><path d="m373 1h-214.24a9.42 9.42 0 0 0 -9.29 7.83l-24.62 161.1h226.15l27.3-162.54a5.39 5.39 0 0 0 -5.3-6.39z" fill="#2c6e9b"/><path d="m373 1h-214.24a9.42 9.42 0 0 0 -9.29 7.83l-24.62 161.1h226.15l27.3-162.54a5.39 5.39 0 0 0 -5.3-6.39z" fill="none" stroke="#141414" stroke-miterlimit="10" stroke-width="2"/><path d="m367.14 13h-206.89l-21.83 144.93h204.77z" fill="#0e394f"/><path d="m367.73 13.22-1.13 6h-206.8l1.03-6z" fill="#062538"/><path d="m166.15 13-21.84 144.93h-6l21.84-144.93z" fill="#062538"/><path d="m189.67 29.07h-11.12l-1.42 4.21h11.99z" fill="#4cf58c"/><path d="m205.67 29.07h-12.12l-1.42 4.21h11.99z" fill="#4cf58c"/><path d="m219.67 29.07h-11.12l-.42 4.21h9.99z" fill="#4cf58c"/><path d="m229.17 29.07h-4.12l-1.42 4.21h4.99z" fill="#4cf58c"/><path d="m175.17 29.07h-4.12l-1.42 4.21 4.58.14z" fill="#4cf58c"/><path d="m187.67 38.07h-11.12l-1.42 4.21h11.99z" fill="#4cf58c"/><path d="m202.67 38.07h-11.12l-1.42 4.21h11.99z" fill="#4cf58c"/><path d="m217.67 38.07h-11.12l-.42 4.21h10.99z" fill="#4cf58c"/><path d="m226.17 38.07h-4.12l-1.42 4.21h4.99z" fill="#4cf58c"/><path d="m173.17 38.07h-4.12l-1.42 4.21h4.83z" fill="#4cf58c"/><path d="m27.57 168.93h228.28a0 0 0 0 1 0 0v21a0 0 0 0 1 0 0h-220.56a13.68 13.68 0 0 1 -13.69-13.68v-1.35a6 6 0 0 1 5.97-5.97z" fill="#19517f"/><path d="m255.85 181.93v8h-220.57a13.69 13.69 0 0 1 -13.68-13.68v-1.35a5.81 5.81 0 0 1 .6-2.6 13.73 13.73 0 0 0 13.08 9.63z" fill="#0e3964" opacity=".3"/><path d="m353.86 162.93v6h-228.83l.83-6z" fill="#0e3964" opacity=".3"/><path d="m90.85 168.93h81a0 0 0 0 1 0 0 11 11 0 0 1 -11 11h-59a11 11 0 0 1 -11-11 0 0 0 0 1 0 0z" fill="#0e3964"/><path d="m90.85 168.93h81a0 0 0 0 1 0 0 11 11 0 0 1 -11 11h-59a11 11 0 0 1 -11-11 0 0 0 0 1 0 0z" fill="none" stroke="#141414" stroke-miterlimit="10" stroke-width="2"/><path d="m367.05 13-23.95 144.93h-204.73l225.87-144.93z" fill="#062538"/><path d="m372.36 157.93-4.51 3" fill="none"/><rect fill="#062c4c" height="3.52" rx="1.76" transform="matrix(-.15384817 .9880945 -.9880945 -.15384817 493.08 -298.53)" width="15.48" x="366.62" y="60.1"/><rect fill="#062c4c" height="3.52" rx="1.76" transform="matrix(-.15384817 .9880945 -.9880945 -.15384817 475.09 -327.63)" width="15.48" x="370.09" y="37.85"/><rect fill="#141414" height="3.52" rx="1.76" width="15.48" x="119.85" y="172.67"/><rect fill="#2c6e9b" height="5.32" rx="2.66" width="29.63" x="35.42" y="168.99"/><circle cx="69.99" cy="171.65" fill="#2c6e9b" r="2.66"/><rect fill="#4d9ac4" height="5.32" rx="2.66" transform="matrix(.15436551 -.98801381 .98801381 .15436551 17.6 225.33)" width="29.63" x="125.61" y="99.72"/><circle cx="143.47" cy="82.87" fill="#4d9ac4" r="2.66"/><rect fill="#4d9ac4" height="5.32" rx="2.66" width="29.63" x="162.42" y="3.99"/><circle cx="196.99" cy="6.65" fill="#4d9ac4" r="2.66"/><circle cx="245.85" cy="6.93" fill="#f95d5d" r="3"/><path d="m71.57 163.93h23v5h-23z" fill="#033156"/><path d="m36.85 163.93h23v5h-23z" fill="#033156"/><path d="m106.28 163.93h23v5h-23z" fill="#033156"/><path d="m141 163.93h23v5h-23z" fill="#033156"/><path d="m175.71 163.93h23v5h-23z" fill="#033156"/><path d="m210.43 163.93h23v5h-23z" fill="#033156"/><path d="m245.14 163.93h23v5h-23z" fill="#033156"/><path d="m314.85 163.93h23v5h-23z" fill="#033156"/><path d="m279.99 164.08h23v5h-23z" fill="#033156"/><g fill="none"><path d="m71.57 163.93h23v5h-23z" stroke="#141414" stroke-miterlimit="10" stroke-width="2"/><path d="m36.85 163.93h23v5h-23z" stroke="#141414" stroke-miterlimit="10" stroke-width="2"/><path d="m106.28 163.93h23v5h-23z" stroke="#141414" stroke-miterlimit="10" stroke-width="2"/><path d="m141 163.93h23v5h-23z" stroke="#141414" stroke-miterlimit="10" stroke-width="2"/><path d="m175.71 163.93h23v5h-23z" stroke="#141414" stroke-miterlimit="10" stroke-width="2"/><path d="m210.43 163.93h23v5h-23z" stroke="#141414" stroke-miterlimit="10" stroke-width="2"/><path d="m245.14 163.93h23v5h-23z" stroke="#141414" stroke-miterlimit="10" stroke-width="2"/><path d="m314.85 163.93h23v5h-23z" stroke="#141414" stroke-miterlimit="10" stroke-width="2"/><path d="m279.99 164.08h23v5h-23z" stroke="#141414" stroke-miterlimit="10" stroke-width="2"/><path d="m367.04 13h-206.89l-21.83 144.93h204.77z" stroke="#141414" stroke-miterlimit="10" stroke-width="2"/></g><path d="m338.69 29.57h-86a8.52 8.52 0 0 0 -8.44 7.26l-8.35 55.4a8.53 8.53 0 0 0 8.44 9.8h85.23a8.53 8.53 0 0 0 8.43-7.14l9.16-55.4a8.53 8.53 0 0 0 -8.47-9.92z" fill="#fff"/><path d="m347 39.5-9.15 55.39a8.54 8.54 0 0 1 -8.42 7.14h-85.22a8.55 8.55 0 0 1 -8.35-6.72l102.46-65.74h.27a8.54 8.54 0 0 1 8.41 9.93z" fill="#f4f3f2"/><path d="m27.57 168.93h228.28a0 0 0 0 1 0 0v21a0 0 0 0 1 0 0h-220.56a13.68 13.68 0 0 1 -13.69-13.68v-1.35a6 6 0 0 1 5.97-5.97z" fill="none" stroke="#141414" stroke-miterlimit="10" stroke-width="2"/><rect fill="#0e3964" height="21" rx="10.5" width="137" x="234.85" y="168.93"/><rect fill="#141414" height="3.52" rx="1.76" width="15.48" x="344.37" y="177.67"/><rect fill="#141414" height="3.52" rx="1.76" width="15.48" x="321.85" y="177.67"/><rect fill="none" height="21" rx="10.5" stroke="#141414" stroke-miterlimit="10" stroke-width="2" width="137" x="234.85" y="168.93"/><path d="m65.39 59.19.87-4.43" fill="none" stroke="#fff" stroke-linecap="round" stroke-linejoin="round"/><circle cx="66.54" cy="53.08" fill="#fff" r=".64"/><path d="m108 60.05 17.26-5.36a7.85 7.85 0 0 1 9.74 5.17l4.2 13.56" fill="none" stroke="#141414" stroke-linecap="round" stroke-linejoin="round" stroke-width="2"/><path d="m89.42 65.8 11.43-3.55" fill="none" stroke="#141414" stroke-linecap="round" stroke-linejoin="round" stroke-width="2"/><path d="m131.35 123.07-60 18.61a7.85 7.85 0 0 1 -9.82-5.17l-15.23-49.12a7.85 7.85 0 0 1 5.17-9.82l31.89-9.89" fill="none" stroke="#141414" stroke-linecap="round" stroke-linejoin="round" stroke-width="2"/><path d="m265.39 76.4h-11.12l-1.42 4.22h11.99z" fill="#fbd766"/><path d="m281.39 76.4h-12.12l-1.41 4.22h11.98z" fill="#fbd766"/><path d="m295.39 76.4h-11.12l-.41 4.22h9.98z" fill="#fbd766"/><path d="m304.89 76.4h-4.12l-1.41 4.22h4.98z" fill="#fbd766"/><path d="m250.89 76.4h-4.12l-1.42 4.22 4.58.13z" fill="#fbd766"/><path d="m263.39 85.4h-11.12l-1.42 4.22h11.99z" fill="#fbd766"/><path d="m278.39 85.4h-11.12l-1.41 4.22h11.98z" fill="#fbd766"/><path d="m293.39 85.4h-11.12l-.41 4.22h10.98z" fill="#fbd766"/><path d="m301.89 85.4h-4.12l-1.41 4.22h4.98z" fill="#fbd766"/><path d="m248.89 85.4h-4.12l-1.42 4.22h4.83z" fill="#fbd766"/><path d="m338.69 29.57h-86a8.52 8.52 0 0 0 -8.44 7.26l-8.35 55.4a8.53 8.53 0 0 0 8.44 9.8h85.23a8.53 8.53 0 0 0 8.43-7.14l9.16-55.4a8.53 8.53 0 0 0 -8.47-9.92z" fill="none" stroke="#141414" stroke-miterlimit="10" stroke-width="1.3"/></svg>